<?xml version="1.0" encoding="iso-8859-1"?>
<!-- Generator: Adobe Illustrator 19.0.0, SVG Export Plug-In . SVG Version: 6.00 Build 0)  -->
<svg version="1.1" id="Capa_1" xmlns="http://www.w3.org/2000/svg" xmlns:xlink="http://www.w3.org/1999/xlink" x="0px" y="0px"
	 viewBox="0 0 512 512" style="enable-background:new 0 0 512 512;" xml:space="preserve">
<g>
	<path style="fill:#A4C2F7;" d="M435.198,119.467h68.268v187.839c0,18.793-15.235,34.028-34.028,34.028h-34.237L435.198,119.467z"/>
	<polygon style="fill:#FFFFFF;" points="179.2,341.333 136.533,341.333 92.442,119.467 145.067,119.467 	"/>
	<circle style="fill:#D4E1F4;" cx="196.267" cy="418.133" r="42.667"/>
	<circle style="fill:#A4C2F7;" cx="392.533" cy="418.133" r="42.667"/>
	<path style="fill:#FFFFFF;" d="M196.267,460.8c-23.564,0-42.667-19.103-42.667-42.667c0-23.564,19.103-42.667,42.667-42.667V460.8z
		"/>
	<g>
		<ellipse style="fill:#D4E1F4;" cx="209.067" cy="418.133" rx="29.867" ry="42.667"/>
		<ellipse style="fill:#D4E1F4;" cx="379.733" cy="418.133" rx="29.867" ry="42.667"/>
		<path style="fill:#D4E1F4;" d="M162.133,341.333l-44.089-221.867h359.822v187.839c0,18.793-15.235,34.028-34.028,34.028"/>
		<circle style="fill:#D4E1F4;" cx="34.133" cy="76.8" r="25.6"/>
	</g>
	<path id="SVGCleanerId_0" style="fill:#428DFF;" d="M196.267,469.333c-28.277,0-51.2-22.923-51.2-51.2
		c0-28.277,22.923-51.2,51.2-51.2s51.2,22.923,51.2,51.2C247.436,446.398,224.531,469.302,196.267,469.333z M196.267,384
		c-18.851,0-34.133,15.282-34.133,34.133c0,18.851,15.282,34.133,34.133,34.133s34.133-15.282,34.133-34.133
		C230.381,399.29,215.11,384.019,196.267,384z"/>
	<path id="SVGCleanerId_1" style="fill:#428DFF;" d="M392.533,469.333c-28.277,0-51.2-22.923-51.2-51.2
		c0-28.277,22.923-51.2,51.2-51.2s51.2,22.923,51.2,51.2C443.702,446.398,420.798,469.302,392.533,469.333z M392.533,384
		c-18.851,0-34.133,15.282-34.133,34.133c0,18.851,15.282,34.133,34.133,34.133s34.133-15.282,34.133-34.133
		C426.648,399.29,411.377,384.019,392.533,384z"/>
	<g>
		<path id="SVGCleanerId_0_1_" style="fill:#428DFF;" d="M196.267,469.333c-28.277,0-51.2-22.923-51.2-51.2
			c0-28.277,22.923-51.2,51.2-51.2s51.2,22.923,51.2,51.2C247.436,446.398,224.531,469.302,196.267,469.333z M196.267,384
			c-18.851,0-34.133,15.282-34.133,34.133c0,18.851,15.282,34.133,34.133,34.133s34.133-15.282,34.133-34.133
			C230.381,399.29,215.11,384.019,196.267,384z"/>
	</g>
	<g>
		<path id="SVGCleanerId_1_1_" style="fill:#428DFF;" d="M392.533,469.333c-28.277,0-51.2-22.923-51.2-51.2
			c0-28.277,22.923-51.2,51.2-51.2s51.2,22.923,51.2,51.2C443.702,446.398,420.798,469.302,392.533,469.333z M392.533,384
			c-18.851,0-34.133,15.282-34.133,34.133c0,18.851,15.282,34.133,34.133,34.133s34.133-15.282,34.133-34.133
			C426.648,399.29,411.377,384.019,392.533,384z"/>
	</g>
	<g>
		<path style="fill:#428DFF;" d="M477.867,418.133h-43.525c-4.713,0-8.533-3.821-8.533-8.533c0-4.713,3.821-8.533,8.533-8.533
			h43.525c4.713,0,8.533,3.821,8.533,8.533C486.4,414.313,482.58,418.133,477.867,418.133z"/>
		<path style="fill:#428DFF;" d="M350.725,418.133h-112.65c-4.713,0-8.533-3.821-8.533-8.533c0-4.713,3.821-8.533,8.533-8.533
			h112.65c4.713,0,8.533,3.821,8.533,8.533C359.258,414.313,355.438,418.133,350.725,418.133z"/>
		<path style="fill:#428DFF;" d="M154.458,418.133H128c-12.065-0.029-23.557-5.153-31.642-14.109
			c-8.085-8.956-12.01-20.91-10.808-32.916c2.863-22.086,21.789-38.542,44.058-38.308h339.833
			c14.073-0.014,25.477-11.419,25.492-25.492V128H102.842l18.308,92.158c0.92,4.621-2.079,9.113-6.7,10.033
			c-4.621,0.92-9.113-2.079-10.033-6.7L82.042,110.933H512v196.375c-0.027,23.493-19.065,42.532-42.558,42.558H129.608
			c-13.535-0.303-25.162,9.556-27.075,22.958c-0.768,7.215,1.596,14.412,6.492,19.767c4.848,5.373,11.738,8.45,18.975,8.475h26.458
			c4.713,0,8.533,3.821,8.533,8.533C162.992,414.313,159.171,418.133,154.458,418.133L154.458,418.133z"/>
		<path style="fill:#428DFF;" d="M136.525,349.867c-4.068-0.001-7.568-2.877-8.358-6.867L118,291.809
			c-0.918-4.621,2.083-9.111,6.704-10.029c4.621-0.918,9.111,2.083,10.029,6.704l10.167,51.191c0.442,2.218-0.016,4.521-1.273,6.401
			c-1.257,1.88-3.209,3.184-5.428,3.624C137.649,349.812,137.087,349.868,136.525,349.867L136.525,349.867z"/>
		<path style="fill:#428DFF;" d="M92.433,128c-4.169-0.004-7.725-3.02-8.408-7.133L78.1,85.333H59.733
			c-4.713,0-8.533-3.821-8.533-8.533s3.821-8.533,8.533-8.533h32.833l8.292,49.8c0.372,2.232-0.158,4.521-1.474,6.362
			s-3.31,3.084-5.542,3.455C93.376,127.963,92.905,128.002,92.433,128L92.433,128z"/>
		<path style="fill:#428DFF;" d="M34.133,110.933C15.282,110.933,0,95.651,0,76.8s15.282-34.133,34.133-34.133
			S68.267,57.949,68.267,76.8C68.248,95.644,52.977,110.915,34.133,110.933L34.133,110.933z M34.133,59.733
			c-9.426,0-17.067,7.641-17.067,17.067s7.641,17.067,17.067,17.067S51.2,86.226,51.2,76.8
			C51.188,67.379,43.554,59.746,34.133,59.733z"/>
		<circle style="fill:#428DFF;" cx="119.893" cy="253.286" r="8.533"/>
	</g>
</g>
<g>
</g>
<g>
</g>
<g>
</g>
<g>
</g>
<g>
</g>
<g>
</g>
<g>
</g>
<g>
</g>
<g>
</g>
<g>
</g>
<g>
</g>
<g>
</g>
<g>
</g>
<g>
</g>
<g>
</g>
</svg>
